<mxfile host="app.diagrams.net" agent="Mozilla/5.0 (Windows NT 10.0; Win64; x64) AppleWebKit/537.36 (KHTML, like Gecko) Chrome/133.0.0.0 Safari/537.36 Edg/133.0.0.0" version="26.0.11">
  <diagram id="C5RBs43oDa-KdzZeNtuy" name="Page-1">
    <mxGraphModel dx="1426" dy="781" grid="1" gridSize="10" guides="1" tooltips="1" connect="1" arrows="1" fold="1" page="1" pageScale="1" pageWidth="827" pageHeight="1169" math="0" shadow="0">
      <root>
        <mxCell id="WIyWlLk6GJQsqaUBKTNV-0" />
        <mxCell id="WIyWlLk6GJQsqaUBKTNV-1" parent="WIyWlLk6GJQsqaUBKTNV-0" />
        <mxCell id="HccrIyST9DHxjyB6C3b5-8" value="" style="edgeStyle=orthogonalEdgeStyle;rounded=0;orthogonalLoop=1;jettySize=auto;html=1;" edge="1" parent="WIyWlLk6GJQsqaUBKTNV-1" source="HccrIyST9DHxjyB6C3b5-2" target="HccrIyST9DHxjyB6C3b5-7">
          <mxGeometry relative="1" as="geometry" />
        </mxCell>
        <mxCell id="HccrIyST9DHxjyB6C3b5-16" value="批量/单个" style="edgeLabel;html=1;align=center;verticalAlign=middle;resizable=0;points=[];" vertex="1" connectable="0" parent="HccrIyST9DHxjyB6C3b5-8">
          <mxGeometry x="-0.3867" y="-2" relative="1" as="geometry">
            <mxPoint x="2" y="9" as="offset" />
          </mxGeometry>
        </mxCell>
        <mxCell id="HccrIyST9DHxjyB6C3b5-2" value="云端注册设备" style="rounded=0;whiteSpace=wrap;html=1;" vertex="1" parent="WIyWlLk6GJQsqaUBKTNV-1">
          <mxGeometry x="294" y="50" width="150" height="50" as="geometry" />
        </mxCell>
        <mxCell id="HccrIyST9DHxjyB6C3b5-18" value="" style="edgeStyle=orthogonalEdgeStyle;rounded=0;orthogonalLoop=1;jettySize=auto;html=1;" edge="1" parent="WIyWlLk6GJQsqaUBKTNV-1" source="HccrIyST9DHxjyB6C3b5-7" target="HccrIyST9DHxjyB6C3b5-17">
          <mxGeometry relative="1" as="geometry" />
        </mxCell>
        <mxCell id="HccrIyST9DHxjyB6C3b5-20" value="" style="edgeStyle=orthogonalEdgeStyle;rounded=0;orthogonalLoop=1;jettySize=auto;html=1;" edge="1" parent="WIyWlLk6GJQsqaUBKTNV-1" source="HccrIyST9DHxjyB6C3b5-7" target="HccrIyST9DHxjyB6C3b5-19">
          <mxGeometry relative="1" as="geometry" />
        </mxCell>
        <mxCell id="HccrIyST9DHxjyB6C3b5-7" value="按规则生成设备唯一序列号" style="whiteSpace=wrap;html=1;rounded=0;" vertex="1" parent="WIyWlLk6GJQsqaUBKTNV-1">
          <mxGeometry x="309" y="170" width="120" height="60" as="geometry" />
        </mxCell>
        <mxCell id="HccrIyST9DHxjyB6C3b5-17" value="同步注册阿里云Iot" style="whiteSpace=wrap;html=1;rounded=0;" vertex="1" parent="WIyWlLk6GJQsqaUBKTNV-1">
          <mxGeometry x="509" y="170" width="140" height="60" as="geometry" />
        </mxCell>
        <mxCell id="HccrIyST9DHxjyB6C3b5-22" value="" style="edgeStyle=orthogonalEdgeStyle;rounded=0;orthogonalLoop=1;jettySize=auto;html=1;" edge="1" parent="WIyWlLk6GJQsqaUBKTNV-1" source="HccrIyST9DHxjyB6C3b5-19" target="HccrIyST9DHxjyB6C3b5-21">
          <mxGeometry relative="1" as="geometry" />
        </mxCell>
        <mxCell id="HccrIyST9DHxjyB6C3b5-19" value="人工在出厂前将这些唯一序列号烧录进设备" style="whiteSpace=wrap;html=1;rounded=0;" vertex="1" parent="WIyWlLk6GJQsqaUBKTNV-1">
          <mxGeometry x="309" y="270" width="120" height="60" as="geometry" />
        </mxCell>
        <mxCell id="HccrIyST9DHxjyB6C3b5-58" value="" style="edgeStyle=orthogonalEdgeStyle;rounded=0;orthogonalLoop=1;jettySize=auto;html=1;entryX=0.5;entryY=0;entryDx=0;entryDy=0;" edge="1" parent="WIyWlLk6GJQsqaUBKTNV-1" source="HccrIyST9DHxjyB6C3b5-21" target="HccrIyST9DHxjyB6C3b5-26">
          <mxGeometry relative="1" as="geometry">
            <mxPoint x="589" y="360" as="targetPoint" />
          </mxGeometry>
        </mxCell>
        <mxCell id="HccrIyST9DHxjyB6C3b5-21" value="后台将这些设备分配到指定商家或门店(可选)" style="whiteSpace=wrap;html=1;rounded=0;" vertex="1" parent="WIyWlLk6GJQsqaUBKTNV-1">
          <mxGeometry x="309" y="370" width="120" height="60" as="geometry" />
        </mxCell>
        <mxCell id="HccrIyST9DHxjyB6C3b5-32" value="" style="edgeStyle=orthogonalEdgeStyle;rounded=0;orthogonalLoop=1;jettySize=auto;html=1;" edge="1" parent="WIyWlLk6GJQsqaUBKTNV-1" source="HccrIyST9DHxjyB6C3b5-59" target="HccrIyST9DHxjyB6C3b5-31">
          <mxGeometry relative="1" as="geometry" />
        </mxCell>
        <mxCell id="HccrIyST9DHxjyB6C3b5-55" value="" style="edgeStyle=orthogonalEdgeStyle;rounded=0;orthogonalLoop=1;jettySize=auto;html=1;entryX=0;entryY=0;entryDx=0;entryDy=0;exitX=0;exitY=0.5;exitDx=0;exitDy=0;" edge="1" parent="WIyWlLk6GJQsqaUBKTNV-1" source="HccrIyST9DHxjyB6C3b5-26" target="HccrIyST9DHxjyB6C3b5-33">
          <mxGeometry relative="1" as="geometry">
            <mxPoint x="310" y="513.5" as="sourcePoint" />
            <mxPoint x="630" y="515" as="targetPoint" />
            <Array as="points">
              <mxPoint x="230" y="515" />
              <mxPoint x="230" y="515" />
              <mxPoint x="120" y="515" />
            </Array>
          </mxGeometry>
        </mxCell>
        <mxCell id="HccrIyST9DHxjyB6C3b5-56" value="已初始化" style="edgeLabel;html=1;align=center;verticalAlign=middle;resizable=0;points=[];" vertex="1" connectable="0" parent="HccrIyST9DHxjyB6C3b5-55">
          <mxGeometry x="-0.1591" y="3" relative="1" as="geometry">
            <mxPoint x="67" y="-11" as="offset" />
          </mxGeometry>
        </mxCell>
        <mxCell id="HccrIyST9DHxjyB6C3b5-26" value="用户使用账号登录进平板系统" style="rounded=0;whiteSpace=wrap;html=1;" vertex="1" parent="WIyWlLk6GJQsqaUBKTNV-1">
          <mxGeometry x="294" y="490" width="150" height="50" as="geometry" />
        </mxCell>
        <mxCell id="HccrIyST9DHxjyB6C3b5-34" value="" style="edgeStyle=orthogonalEdgeStyle;rounded=0;orthogonalLoop=1;jettySize=auto;html=1;" edge="1" parent="WIyWlLk6GJQsqaUBKTNV-1" source="HccrIyST9DHxjyB6C3b5-31" target="HccrIyST9DHxjyB6C3b5-33">
          <mxGeometry relative="1" as="geometry" />
        </mxCell>
        <mxCell id="HccrIyST9DHxjyB6C3b5-35" value="已被分配" style="edgeLabel;html=1;align=center;verticalAlign=middle;resizable=0;points=[];" vertex="1" connectable="0" parent="HccrIyST9DHxjyB6C3b5-34">
          <mxGeometry x="-0.05" y="-1" relative="1" as="geometry">
            <mxPoint y="45" as="offset" />
          </mxGeometry>
        </mxCell>
        <mxCell id="HccrIyST9DHxjyB6C3b5-33" value="检测当前账号是否归属于已分配的商家,&lt;div&gt;如不属于,则强制退出登录,禁止使用&lt;/div&gt;" style="whiteSpace=wrap;html=1;rounded=0;" vertex="1" parent="WIyWlLk6GJQsqaUBKTNV-1">
          <mxGeometry x="120" y="910" width="170" height="60" as="geometry" />
        </mxCell>
        <mxCell id="HccrIyST9DHxjyB6C3b5-41" value="" style="edgeStyle=orthogonalEdgeStyle;rounded=0;orthogonalLoop=1;jettySize=auto;html=1;" edge="1" parent="WIyWlLk6GJQsqaUBKTNV-1" source="HccrIyST9DHxjyB6C3b5-31" target="HccrIyST9DHxjyB6C3b5-40">
          <mxGeometry relative="1" as="geometry" />
        </mxCell>
        <mxCell id="HccrIyST9DHxjyB6C3b5-42" value="未被分配" style="edgeLabel;html=1;align=center;verticalAlign=middle;resizable=0;points=[];" vertex="1" connectable="0" parent="HccrIyST9DHxjyB6C3b5-41">
          <mxGeometry x="-0.1" y="-1" relative="1" as="geometry">
            <mxPoint x="20" y="69" as="offset" />
          </mxGeometry>
        </mxCell>
        <mxCell id="HccrIyST9DHxjyB6C3b5-31" value="调用后台接口,查询该设备sn是否已被分配到指定商家或门店" style="whiteSpace=wrap;html=1;rounded=0;" vertex="1" parent="WIyWlLk6GJQsqaUBKTNV-1">
          <mxGeometry x="310" y="760" width="120" height="60" as="geometry" />
        </mxCell>
        <mxCell id="HccrIyST9DHxjyB6C3b5-40" value="由用户选择门店进行分配,绑定门店" style="whiteSpace=wrap;html=1;rounded=0;" vertex="1" parent="WIyWlLk6GJQsqaUBKTNV-1">
          <mxGeometry x="505" y="910" width="120" height="60" as="geometry" />
        </mxCell>
        <mxCell id="HccrIyST9DHxjyB6C3b5-60" value="" style="edgeStyle=orthogonalEdgeStyle;rounded=0;orthogonalLoop=1;jettySize=auto;html=1;" edge="1" parent="WIyWlLk6GJQsqaUBKTNV-1" source="HccrIyST9DHxjyB6C3b5-26" target="HccrIyST9DHxjyB6C3b5-59">
          <mxGeometry relative="1" as="geometry">
            <mxPoint x="369" y="540" as="sourcePoint" />
            <mxPoint x="370" y="760" as="targetPoint" />
          </mxGeometry>
        </mxCell>
        <mxCell id="HccrIyST9DHxjyB6C3b5-59" value="进入引导页,并且从后台获取产品,型号,等基础信息进初始化" style="rounded=0;whiteSpace=wrap;html=1;" vertex="1" parent="WIyWlLk6GJQsqaUBKTNV-1">
          <mxGeometry x="300" y="600" width="140" height="60" as="geometry" />
        </mxCell>
      </root>
    </mxGraphModel>
  </diagram>
</mxfile>
